<svg width="127" height="78" viewBox="0 0 127 78" fill="none" xmlns="http://www.w3.org/2000/svg">
<g clip-path="url(#clip0_59_1164)">
<path d="M96.4773 11.9179C92.7264 11.9179 89.1308 12.5942 85.8105 13.8366V71.0767C89.1308 72.3141 92.7214 72.9954 96.4773 72.9954C113.339 72.9954 127.005 59.3241 127.005 42.4567C127.005 25.5892 113.339 11.9179 96.4773 11.9179Z" fill="#465F80"/>
<path d="M106.453 46.6848C106.468 46.5395 106.493 46.3992 106.523 46.259C106.563 46.0736 106.463 45.8933 106.282 45.8281C105.852 45.6778 105.426 45.753 105.086 46.0486C105.031 46.0987 104.98 46.1588 104.93 46.2139C104.94 45.9283 104.92 45.6528 104.815 45.4324C104.83 45.4073 104.845 45.3873 104.86 45.3622C104.905 45.2921 104.92 45.2119 104.915 45.1318C104.905 45.0166 104.915 44.9064 104.915 44.7911C104.925 44.6409 104.93 44.4856 104.915 44.3303C104.915 44.2802 104.895 44.2351 104.875 44.19C104.805 44.0497 104.71 43.9445 104.625 43.8493L104.555 43.7642C104.49 43.684 104.39 43.6339 104.284 43.6289C104.174 43.6189 104.079 43.664 104.004 43.7391L103.929 43.8143C102.797 44.9615 101.705 46.1688 101.84 47.2208C101.861 47.3861 101.991 47.5214 102.161 47.5414C102.261 47.5565 102.381 47.7168 102.386 47.9021C102.386 48.0324 102.461 48.1576 102.577 48.2227C102.807 48.348 103.072 48.4482 103.393 48.5133C103.493 48.5985 103.613 48.6435 103.738 48.6435C103.774 48.6435 103.804 48.6435 103.839 48.6335C104.059 48.5884 104.239 48.4031 104.379 48.1626C104.389 48.2378 104.395 48.3079 104.41 48.378C104.5 48.8089 104.72 49.1044 105.036 49.2046C105.071 49.2146 105.111 49.2197 105.146 49.2197C105.231 49.2197 105.321 49.1896 105.386 49.1295C105.476 49.0543 105.526 48.9341 105.516 48.8189C105.601 48.8489 105.697 48.8489 105.807 48.7988C106.102 48.6586 106.082 48.353 105.937 47.6967C106.057 47.6817 106.172 47.6366 106.252 47.5514C106.388 47.4062 106.423 47.1607 106.252 46.9553C106.262 46.9503 106.272 46.9453 106.282 46.9403C106.373 46.8802 106.433 46.78 106.448 46.6748L106.453 46.6848ZM106.127 47.3811C106.127 47.3811 106.127 47.3711 106.132 47.3661C106.132 47.3661 106.132 47.3761 106.132 47.3811H106.127Z" fill="white"/>
<path d="M94.4939 42.5919C93.8979 42.7722 94.1183 43.9846 94.1984 44.2351C94.2785 44.6859 94.5289 44.7911 94.6691 44.8162C94.6942 44.8162 94.7192 44.8212 94.7493 44.8212C94.9646 44.8212 95.1699 44.6759 95.3051 44.4204C95.4654 44.1198 95.5155 43.699 95.2951 43.3934C95.1849 43.0478 94.9746 42.4516 94.4939 42.5969V42.5919Z" fill="white"/>
<path d="M105.421 39.2154C105.005 38.995 104.675 39.1603 104.515 39.3908C104.204 39.8266 104.279 40.7484 104.54 41.2844C104.505 41.3646 104.495 41.4497 104.525 41.5349C104.7 42.0759 104.9 42.3214 105.156 42.3214C105.186 42.3214 105.216 42.3214 105.246 42.3114C105.286 42.3014 105.301 42.2813 105.331 42.2663C105.391 42.3014 105.461 42.3264 105.521 42.3264H105.536C105.536 42.3264 105.546 42.3214 105.556 42.3214C105.586 42.3514 105.606 42.3815 105.647 42.4166C105.657 42.4617 105.672 42.5067 105.677 42.5368C105.546 42.7071 105.481 42.9726 105.546 43.153C105.601 43.3033 105.742 43.3935 105.897 43.3935C105.937 43.3935 105.977 43.3884 106.012 43.3734C106.217 43.3033 106.358 43.2081 106.438 43.0778C106.548 42.9927 106.613 42.8674 106.628 42.7222C106.653 42.7021 106.678 42.6871 106.698 42.662C106.954 42.3014 106.533 41.7002 106.513 41.6751C106.453 41.59 106.393 41.5299 106.338 41.4898C106.388 41.3145 106.338 41.1241 106.207 40.9988C106.092 40.8836 105.927 40.8486 105.782 40.8936C105.591 40.7033 105.446 40.4879 105.611 39.6262C105.641 39.4659 105.566 39.3006 105.421 39.2254V39.2154ZM106.157 41.2293C106.202 41.2894 106.212 41.3595 106.202 41.4146C106.192 41.4146 106.182 41.4046 106.172 41.3996C106.152 41.3495 106.132 41.3044 106.107 41.2644L106.157 41.2293ZM105.767 42.7923C105.777 42.8173 105.792 42.8424 105.807 42.8775L105.852 42.9726L105.822 43.0077C105.822 43.0077 105.752 42.9225 105.757 42.8173C105.757 42.8073 105.762 42.8023 105.762 42.7923H105.767Z" fill="white"/>
<path d="M106.763 44.8613C106.863 44.8312 106.963 44.7761 107.014 44.6909C107.099 44.5507 107.099 44.3703 107.014 44.2351C106.948 44.1249 106.798 44.0347 106.673 44.0347C106.533 44.0397 106.378 44.1198 106.312 44.2351C106.277 44.2902 106.267 44.3603 106.262 44.4254C106.232 44.4355 106.197 44.4304 106.172 44.4455C106.057 44.5106 105.962 44.6809 105.962 44.8112C105.962 44.9414 106.052 45.1118 106.172 45.1819C106.227 45.217 106.302 45.232 106.373 45.232C106.443 45.232 106.518 45.217 106.578 45.1819C106.678 45.1218 106.748 44.9915 106.768 44.8663L106.763 44.8613ZM106.948 44.3102C107.004 44.4054 107.004 44.5106 106.948 44.6058L106.723 44.4405L106.948 44.3052V44.3102ZM106.348 44.4004C106.353 44.3703 106.358 44.3403 106.373 44.3102L106.548 44.4405C106.488 44.4104 106.418 44.3954 106.343 44.4004H106.348Z" fill="white"/>
<path d="M112.892 57.5457C113.033 56.2231 112.587 55.2362 112.121 54.1842C111.68 53.2023 111.23 52.1904 111.175 50.7526C111.175 50.6724 111.14 50.5973 111.09 50.5372C111.2 50.442 111.295 50.3368 111.375 50.2366C111.375 50.2366 111.375 50.2366 111.375 50.2316C111.706 50.6073 112.301 51.2135 112.742 51.2135C112.817 51.2135 112.892 51.1934 112.957 51.1534C113.368 50.8979 113.083 50.3468 112.912 50.0112C112.872 49.936 112.812 49.8759 112.732 49.8408C112.527 49.7507 112.532 49.7256 112.542 49.4952C112.557 49.2397 112.582 48.7788 112.011 48.4682C111.565 46.9904 109.888 47.2108 109.157 47.306C109.086 47.316 109.021 47.326 108.971 47.331C108.921 47.306 108.866 47.2909 108.811 47.2909C108.235 47.306 107.935 47.4563 107.895 47.7919C107.844 48.2027 108.31 48.5033 108.766 48.6085C109.227 48.7187 109.272 48.9742 109.307 49.42C109.327 49.6906 109.352 50.0012 109.617 50.1765C109.727 50.2466 109.843 50.2717 109.948 50.2767C110.058 50.4671 110.213 50.6374 110.429 50.7025L110.378 50.8929C110.218 51.474 109.908 52.6162 109.667 52.9919C109.622 52.9067 109.557 52.7565 109.482 52.516C109.532 52.4408 109.572 52.3507 109.572 52.2304C109.572 52.2154 109.577 52.2004 109.577 52.1854C109.592 52.0401 109.557 51.9399 109.512 51.8647C109.577 51.6844 109.592 51.489 109.572 51.3487C109.522 50.963 109.232 50.933 109.177 50.9279C109.061 50.9179 108.991 50.953 108.921 51.0081C108.671 50.8929 108.34 50.7576 108.06 50.6825C108.01 50.6674 107.965 50.6825 107.915 50.6875C107.885 50.6775 107.859 50.6674 107.829 50.6674C107.659 50.6574 107.339 50.7376 107.183 50.983C107.093 51.1333 107.098 51.3137 107.168 51.484C107.103 51.5842 107.053 51.6994 107.058 51.8547C107.038 51.8998 107.023 51.9349 107.008 51.9599C106.833 51.8347 106.462 51.5992 106.017 51.9349C105.956 51.98 105.906 52.0451 105.886 52.1202C105.626 52.9418 105.01 53.4227 104.364 53.8486C104.264 53.8285 104.154 53.8285 104.074 53.8786C103.983 53.9287 103.918 54.0489 103.888 54.1592C103.758 54.2443 103.628 54.3345 103.503 54.4247C103.448 54.3896 103.392 54.3645 103.332 54.3645C103.127 54.3645 102.937 54.595 102.937 54.8004C102.937 54.8304 102.952 54.8655 102.957 54.9006C102.581 55.2913 102.316 55.7723 102.311 56.4385C102.095 56.5888 102.135 56.8944 102.201 57.3954C102.281 58.0116 102.411 59.0385 102.11 59.5595C102.075 59.6247 102.055 59.6948 102.06 59.7699C102.085 60.1407 102.226 60.4012 102.476 60.5464C103.012 60.852 103.793 60.4713 104.704 60.0254C105.431 59.6698 106.337 59.2289 106.723 59.4042C106.778 59.4293 106.858 59.4844 106.918 59.6597C106.853 60.0004 106.798 60.4162 107.128 60.5765C107.163 60.5915 107.198 60.6066 107.233 60.6116C107.198 60.7468 107.243 60.8921 107.354 60.9873C107.449 61.0674 107.574 61.0925 107.694 61.0574C107.719 61.1476 107.754 61.2979 107.774 61.5383C107.784 61.6385 107.834 61.7287 107.91 61.7888C108.21 62.0343 108.556 62.1595 108.921 62.1595C109.131 62.1595 109.347 62.1195 109.572 62.0393C111.054 61.5083 112.547 59.2439 112.892 57.5757C112.892 57.5657 112.892 57.5507 112.897 57.5407L112.892 57.5457ZM107.529 51.1434C107.529 51.1434 107.529 51.1434 107.529 51.1383C107.529 51.1283 107.529 51.1233 107.534 51.1183V51.1434H107.529ZM109.382 52.1803C109.382 52.1803 109.382 52.1653 109.377 52.1553C109.377 52.1653 109.387 52.1703 109.387 52.1803H109.382Z" fill="white"/>
<path d="M117.64 61.1125C117.555 60.9923 117.41 60.9322 117.264 60.9622C117.209 60.9723 117.169 60.9773 117.134 60.9823C117.134 60.9472 117.134 60.9121 117.134 60.8821C117.134 60.7017 117.124 60.4563 117.034 60.1857C117.024 60.1507 117.004 60.1156 116.979 60.0805C116.809 59.8451 116.583 59.8701 116.518 59.8852C116.198 59.9553 116.138 60.2559 116.018 60.8119C115.907 61.338 115.702 62.3148 115.306 62.3599C115.261 62.3649 115.216 62.38 115.171 62.4C112.777 63.6724 112.828 64.0281 112.863 64.2636C112.888 64.4539 113.033 64.5942 113.233 64.6343C113.263 64.6393 113.303 64.6443 113.343 64.6443C114.135 64.6443 116.483 63.442 117.65 61.5133C117.725 61.3881 117.72 61.2277 117.635 61.1075L117.64 61.1125Z" fill="white"/>
<path d="M87.2226 17.8293C87.2226 17.8293 87.2426 17.8293 87.2526 17.8293C87.4329 17.8343 87.5932 17.7642 87.6833 17.6189C87.7234 17.5588 87.7384 17.4736 87.7384 17.3935C87.8035 17.3584 87.8636 17.3083 87.8987 17.2432C87.9688 17.1229 87.9688 16.9276 87.8987 16.8073C87.8085 16.662 87.6483 16.5719 87.498 16.5919C87.3127 16.5819 87.1425 16.662 87.0523 16.8073C87.0173 16.8624 87.0022 16.9426 87.0022 17.0177C86.9271 17.0528 86.862 17.1079 86.822 17.178C86.7468 17.2983 86.7468 17.4987 86.822 17.6189C86.9071 17.7541 87.0523 17.8293 87.2226 17.8293ZM87.6883 17.1981C87.6883 17.1981 87.6883 17.1931 87.6883 17.1881H87.6933C87.6933 17.1881 87.6933 17.1931 87.6933 17.1981H87.6883ZM87.478 16.7222C87.5481 16.7222 87.6332 16.7723 87.6933 16.8624L87.4479 16.9726L87.2677 16.8624C87.3228 16.7723 87.4129 16.7272 87.483 16.7222H87.478ZM87.4479 17.2281L87.3428 17.2782C87.3177 17.2582 87.2877 17.2331 87.2677 17.1981L87.3728 17.143C87.3979 17.163 87.4229 17.1881 87.4479 17.2231V17.2281ZM87.2777 17.4736L87.4479 17.5838C87.3979 17.659 87.3378 17.699 87.2777 17.7141L87.2526 17.4886L87.2727 17.4786L87.2777 17.4736ZM87.2476 17.4886L87.2226 17.7141C87.1675 17.699 87.1024 17.659 87.0573 17.5838L87.2526 17.4886H87.2476Z" fill="white"/>
<path d="M86.6769 18.0798C86.6018 17.8243 86.4315 17.7642 85.8105 17.7992V18.8312C86.0159 18.8062 86.0659 18.7761 86.116 18.7561C86.4866 18.5657 86.7821 18.4204 86.6769 18.0798Z" fill="white"/>
<path d="M103.498 50.5272C103.723 50.5272 103.893 50.462 104.014 50.3268C104.144 50.1815 104.214 49.916 104.029 49.6104C103.808 49.2597 103.217 48.854 102.526 48.9642C102.216 48.8189 101.945 48.7387 101.705 48.7137C101.725 48.6536 101.75 48.5935 101.77 48.5283C101.795 48.4382 101.785 48.343 101.745 48.2578C101.74 48.2478 101.71 48.2027 101.695 48.1777C101.63 48.0274 101.65 47.8119 101.74 47.6917C101.86 47.5264 101.83 47.296 101.665 47.1707C101.61 47.1306 101.545 47.0805 101.47 47.0405C101.47 47.0355 101.48 47.0304 101.485 47.0254C101.545 46.9453 101.565 46.8451 101.55 46.7449C101.535 46.6447 101.48 46.5595 101.394 46.5044C101.364 46.4844 101.339 46.4593 101.324 46.4393C101.399 46.3391 101.42 46.2089 101.374 46.0886L100.683 44.2301C100.448 43.6039 100.258 43.0879 100.122 42.7071C100.503 42.9175 101.019 43.1029 101.61 42.9927C102 42.8875 102.271 42.6821 102.406 42.3765C102.702 41.7152 102.256 40.8486 101.825 40.0069C101.63 39.6312 101.309 39 101.324 38.8647C101.324 38.8647 101.42 38.8146 101.765 38.8647C101.84 38.8798 101.92 38.8647 101.985 38.8297C102.076 38.7846 102.206 38.8197 102.276 38.8447C102.391 38.8848 102.526 38.8647 102.626 38.7946C105.406 36.7106 105.025 35.4331 104.294 34.0906C103.908 33.3842 103.708 32.9534 104.079 32.3422C104.099 32.3071 104.114 32.2671 104.124 32.227C104.124 32.227 104.124 32.227 104.129 32.232C104.89 33.4393 105.125 33.7198 105.506 33.5746C105.887 33.4193 105.806 33.0486 105.616 32.1468C105.516 31.6609 105.391 31.0798 105.356 30.5788C105.711 30.4536 105.992 30.2382 106.187 29.9476C106.503 29.4617 106.528 28.8505 106.467 28.3044C106.618 28.5048 106.763 28.7102 106.893 28.8856C107.008 29.0409 107.214 29.0809 107.379 28.9908C107.544 28.8956 107.609 28.6952 107.534 28.5198C107.479 28.3946 107.434 28.2644 107.384 28.1341C107.139 27.4879 106.833 26.6813 105.666 25.4239C105.546 25.2936 105.346 25.2686 105.195 25.3638C105.135 25.4039 105.085 25.459 105.055 25.5241C104.93 25.459 104.79 25.4039 104.65 25.3838C104.65 25.3788 104.65 25.3738 104.645 25.3688C104.554 25.1734 104.374 25.0582 104.169 25.0532C104.479 24.1765 105.015 24.2266 105.721 24.3017C105.957 24.3268 106.202 24.3518 106.437 24.3318C106.623 24.3819 106.878 24.3919 107.048 24.2416C107.194 24.1114 107.234 23.906 107.149 23.7156C107.139 23.6906 107.123 23.6655 107.103 23.6455C107.274 23.6705 107.434 23.6856 107.579 23.6605C107.579 23.8759 107.539 24.0863 107.434 24.1865C107.359 24.2567 107.314 24.3518 107.314 24.452C107.304 25.0732 108.616 27.1522 109.192 27.4227C109.372 27.5079 109.567 27.4879 109.703 27.3676C109.928 27.1723 109.903 26.8416 109.758 26.3457C110.113 25.464 109.582 24.8177 109.227 24.3869C109.222 24.3769 109.212 24.3669 109.207 24.3619C109.257 24.2817 109.292 24.1965 109.297 24.0963C109.297 24.0513 109.277 24.0112 109.267 23.9711C109.437 23.936 109.622 23.8759 109.838 23.7757C110.148 23.6254 111.15 23.0994 111.035 22.5233C111.015 22.4131 110.939 22.2428 110.699 22.1526C111.395 22.1877 111.706 22.1476 111.816 21.847C111.866 21.7067 111.851 21.5014 111.641 21.341C110.929 20.805 101.234 18.4605 100.067 19.3071C100.052 19.3172 100.042 19.3272 100.027 19.3372C99.9372 19.3272 99.842 19.3372 99.7569 19.3923C99.3412 19.3121 98.9156 19.232 98.6552 19.4173C97.949 18.9715 96.9274 18.4304 96.5468 18.7761C96.5068 18.8162 96.4667 18.8613 96.4367 18.9214C96.026 18.8563 95.7155 18.7861 95.4551 18.721C95.1697 18.6559 94.9293 18.6008 94.6989 18.5908C94.6989 18.4605 94.6639 18.3603 94.6338 18.2952C94.4485 17.9145 93.9127 17.7391 93.2917 17.8093C93.2917 17.8093 93.2917 17.7992 93.2917 17.7942C93.2617 17.7441 93.2116 17.7041 93.1515 17.669C93.1465 17.6339 93.1365 17.5988 93.1214 17.5688C93.0213 17.3834 92.821 17.3484 92.6507 17.3584C92.5856 17.3283 92.5155 17.3033 92.4454 17.3033C92.4253 17.3033 92.4103 17.3133 92.3903 17.3183C92.0948 17.1129 91.6341 16.9476 91.2986 17.1079C90.9731 16.8424 90.1117 16.3865 89.5508 16.622C89.5358 16.627 89.5208 16.642 89.5057 16.647C89.4206 16.5919 89.3255 16.5568 89.2103 16.5568C89.03 16.5418 88.8647 16.622 88.7796 16.7622C88.7045 16.8825 88.7045 17.0829 88.7796 17.2081C88.8597 17.3383 89.005 17.4085 89.1702 17.4135C89.2003 17.4936 89.2553 17.5688 89.3255 17.6139C89.3255 17.6139 89.4306 17.659 89.5809 17.7141C89.5759 17.7191 89.5709 17.7291 89.5658 17.7391C89.4657 17.8042 89.3856 17.9445 89.3805 18.0698V18.0848C89.3805 18.0848 89.3805 18.0948 89.3805 18.0998C89.3906 18.2301 89.4707 18.3703 89.5809 18.4355C89.5859 18.4355 89.6009 18.4355 89.6059 18.4405C89.5608 18.4755 89.5258 18.5206 89.4907 18.5707C89.4757 18.5707 89.4657 18.5657 89.4457 18.5657C89.4457 18.5657 89.4356 18.5657 89.4306 18.5657C89.4306 18.5356 89.4206 18.5006 89.4106 18.4705C89.4306 18.3653 89.4256 18.2551 89.3755 18.175C89.2954 18.0447 89.1552 17.9796 89.035 17.9746C89.035 17.8944 89.015 17.8193 88.9749 17.7491C88.8948 17.6139 88.7546 17.5337 88.6143 17.5337H88.5993C88.4641 17.5337 88.2838 17.6339 88.2187 17.7491C88.1386 17.8894 88.1386 18.0597 88.2187 18.2C88.2588 18.2651 88.3339 18.3202 88.419 18.3603C88.409 18.4054 88.404 18.4455 88.409 18.4906C88.3239 18.5457 88.2538 18.6208 88.2237 18.721C88.2087 18.721 88.1937 18.711 88.1837 18.706C88.0535 18.696 87.8531 18.7911 87.783 18.9064C87.773 18.9214 87.778 18.9414 87.768 18.9565C87.753 18.9665 87.748 18.9815 87.733 18.9915C87.5427 18.8362 87.3524 18.741 87.1871 18.726C87.0018 18.726 86.8466 18.8713 86.8265 19.0567C86.7815 19.4674 86.7664 19.778 86.7564 20.0135C86.5661 19.9434 86.3157 19.8832 85.835 19.8632V41.4647C86.8566 41.615 87.7129 41.2744 88.3089 40.5279C89.0701 39.5711 89.1752 38.2536 88.6143 37.1364C88.6043 37.1014 88.5943 37.0713 88.5843 37.0412C88.7796 37.0813 88.9899 37.1064 89.2003 37.1364C89.8162 37.2216 90.5123 37.3118 90.7427 37.6825C90.7878 37.7526 90.8429 37.8027 90.918 37.8278C91.0031 37.8778 91.1533 38.1684 91.2335 38.3237C91.4137 38.6794 91.599 39.0501 91.9846 39.0251C92.0147 39.0251 92.0397 39.02 92.0648 39.01C92.7308 42.3314 93.0814 42.9276 93.6072 42.9927C94.143 43.0578 94.4485 42.4266 94.8992 41.4647C95.38 40.4428 96.021 39.0751 97.0226 38.4189C97.1828 38.7044 97.313 39.1152 97.4282 39.4859C97.6486 40.1823 97.8238 40.7333 98.2695 40.8235C98.3947 40.8486 98.5149 40.8335 98.6351 40.7734C98.8505 41.1792 98.9707 42.0709 99.0708 42.8123C99.1509 43.4085 99.2361 44.0247 99.3763 44.5908C99.3513 44.5908 99.3262 44.5908 99.3062 44.5908C99.1009 44.6008 98.9356 44.731 98.8605 44.9414C98.6101 45.6328 99.4414 47.8721 100.899 49.2297C100.904 49.2347 100.914 49.2347 100.919 49.2447C100.919 49.3199 100.919 49.4 100.949 49.4752C101.094 49.8709 101.615 50.1364 102.291 50.1715C102.812 50.4069 103.217 50.5222 103.518 50.5222L103.498 50.5272ZM109.047 23.9861C109.082 24.0362 109.097 24.0913 109.062 24.1665C109.062 24.1665 109.062 24.1665 109.057 24.1715C109.011 24.1114 108.966 24.0513 108.941 24.0012C108.971 24.0012 109.016 23.9861 109.047 23.9861ZM103.748 31.696C103.748 31.696 103.788 31.7561 103.813 31.7911C103.783 31.7861 103.753 31.7811 103.718 31.7911C103.668 31.7911 103.618 31.7962 103.568 31.8012C103.658 31.7461 103.713 31.716 103.748 31.701V31.696ZM89.1201 17.2682C89.0751 17.2482 89.03 17.2181 88.9949 17.158L89.1402 17.0879C89.1302 17.133 89.1151 17.173 89.1151 17.2181C89.1151 17.2181 89.1151 17.2231 89.1151 17.2281C89.1151 17.2432 89.1201 17.2532 89.1201 17.2682ZM89.1602 16.9175L88.9899 16.8123C89.035 16.7422 89.1001 16.7021 89.1552 16.6871L89.1802 16.9075L89.1552 16.9175H89.1602ZM89.2203 16.8875L89.1903 16.9025L89.2153 16.6821C89.2503 16.6921 89.2904 16.7172 89.3255 16.7522C89.2854 16.7923 89.2453 16.8374 89.2153 16.8875H89.2203ZM87.3023 36.906C87.3023 36.906 87.132 36.8709 86.7865 36.3249C86.9868 36.5403 87.2021 36.7056 87.4425 36.7507C87.3974 36.8058 87.3223 36.8909 87.3023 36.906ZM88.3039 18.1299C88.2488 18.0347 88.2488 17.9245 88.3039 17.8293L88.4992 17.9946C88.4992 17.9946 88.4992 17.9996 88.4992 18.0046L88.2988 18.1349L88.3039 18.1299ZM88.3439 18.731C88.3539 18.696 88.389 18.6709 88.414 18.6409C88.414 18.6459 88.414 18.6559 88.419 18.6609C88.4391 18.696 88.4791 18.716 88.5092 18.7461C88.5092 18.7561 88.5092 18.7661 88.5142 18.7761C88.5142 18.7761 88.5042 18.7761 88.4992 18.7761L88.3389 18.726L88.3439 18.731ZM88.5192 18.9915C88.5192 18.9915 88.5192 18.9715 88.5142 18.9665C88.5192 18.9765 88.5292 18.9765 88.5342 18.9865H88.5192V18.9915ZM88.6794 18.0547C88.6544 18.0647 88.6294 18.0647 88.6043 18.0748V18.0247C88.6344 18.0046 88.6344 17.9696 88.6244 17.9445L88.8297 17.8243C88.8597 17.8744 88.8697 17.9295 88.8697 17.9896C88.7996 17.9996 88.7395 18.0197 88.6844 18.0547H88.6794ZM89.1602 18.2351C89.1301 18.185 89.0751 18.1349 89.015 18.0998C89.0751 18.1199 89.1402 18.1549 89.1852 18.2251L89.1602 18.2351ZM101.044 46.6748C101.044 46.6748 101.034 46.6497 101.024 46.6397C101.064 46.6497 101.109 46.6698 101.149 46.6998L101.044 46.6748Z" fill="white"/>
<path d="M88.2743 41.4597C88.2342 41.4447 87.8787 41.3195 87.6533 41.4948C87.5832 41.5449 87.5331 41.6301 87.5081 41.7202C87.5081 41.7202 87.5081 41.7503 87.5031 41.7653C87.473 41.7453 87.443 41.7152 87.4079 41.7052C87.2777 41.6651 87.1325 41.7002 87.0374 41.7954C86.7719 42.0559 86.2361 42.1511 85.8154 42.0959V45.9033C86.787 44.7711 87.8386 43.5888 87.6884 42.2312C87.6984 42.2412 87.7084 42.2512 87.7184 42.2563C87.8086 42.3114 87.9087 42.3364 88.0139 42.3364C88.1541 42.3364 88.2993 42.2863 88.3995 42.1911C88.5547 42.0459 88.5848 41.8254 88.4796 41.6301C88.4346 41.5499 88.3644 41.4898 88.2843 41.4597H88.2743ZM88.0289 42.136L88.079 41.9907L88.1391 42.0509C88.099 42.096 88.0489 42.121 88.0239 42.136H88.0289ZM88.099 41.7954C88.0289 41.7753 87.9238 41.7653 87.8837 41.7954H87.8687L87.8737 41.8004C87.8687 41.8054 87.8586 41.8104 87.8586 41.8204C87.8436 41.8755 87.8637 41.9106 87.9037 41.9356L87.8136 41.9857C87.7935 41.9457 87.7785 41.8855 87.7885 41.8304H87.8586L87.7935 41.8054C87.8036 41.7503 87.8336 41.7002 87.8787 41.6551C87.9838 41.5549 88.069 41.605 88.099 41.625C88.1641 41.6651 88.2042 41.7302 88.2242 41.8004H88.099V41.7954Z" fill="white"/>
<path d="M86.6368 51.1383C86.2312 51.0632 86.0459 51.474 85.8105 52V56.5938C86.3714 56.3484 86.717 55.3464 86.8572 53.543C87.0725 53.1773 87.1376 53.017 87.1326 52.3857C87.1326 52.3807 87.1326 52.3757 87.1326 52.3707C87.1026 51.7195 87.0475 51.2135 86.6368 51.1383Z" fill="white"/>
<path style="mix-blend-mode:multiply" d="M96.4773 11.9179C92.7264 11.9179 89.1308 12.5942 85.8105 13.8366V71.0767C89.1308 72.3141 92.7214 72.9954 96.4773 72.9954C113.339 72.9954 127.005 59.3241 127.005 42.4567C127.005 25.5892 113.339 11.9179 96.4773 11.9179Z" fill="url(#paint0_linear_59_1164)"/>
<path d="M54.8616 56.5287L54.1855 56.8393C60.1099 69.694 73.0703 78 87.2126 78V77.2586C73.3607 77.2586 60.6607 69.1229 54.8566 56.5287H54.8616Z" fill="#1D1D1B"/>
<path d="M86.5514 4.53372C85.9805 4.64394 83.5116 5.11985 83.5116 5.11985L78.9945 0.160313C78.9945 0.160313 78.4787 -0.0400728 78.2533 0.00501392L80.4918 5.76108L76.4204 6.5476C76.4204 6.5476 74.5775 4.99962 74.3271 4.92948C74.0767 4.85935 73.4958 4.61388 74.4273 5.44548C75.3588 6.27708 75.5491 6.95338 75.5491 6.95338C75.5491 6.95338 75.6092 7.09365 75.4289 7.23392C75.2386 7.29904 75.0533 7.37419 74.863 7.44432C74.7929 7.45434 74.6326 7.49442 74.5675 7.55453C65.6034 10.8909 58.2118 17.7191 54.1904 26.4409L54.8665 26.7515C58.9379 17.9145 66.5349 11.0563 75.7243 7.92024C75.7243 8.13064 75.6893 8.75183 75.2386 9.65357C74.6827 10.7707 75.1284 10.3299 75.3387 10.1696C75.5441 10.0093 76.6808 7.89018 76.6808 7.89018L80.7523 7.10367L80.8124 13.2755C81.0427 13.2304 81.4433 12.8547 81.4433 12.8547L83.8021 6.57264C83.8021 6.57264 86.2659 6.09673 86.8419 5.98652C87.4128 5.87631 87.7933 5.04972 87.7933 5.04972C87.7933 5.04972 87.1373 4.42351 86.5664 4.53372H86.5514ZM75.6793 7.73488C75.7093 7.78498 75.7093 7.82505 75.7093 7.83006L75.6793 7.73488Z" fill="#1D1D1B"/>
<path d="M0 30.679H3.48549C3.92118 30.679 4.32181 30.7291 4.6974 30.8343C5.07299 30.9395 5.39349 31.0898 5.65891 31.2952C5.92934 31.5006 6.13967 31.7561 6.29491 32.0767C6.45016 32.3923 6.53028 32.763 6.53028 33.1888C6.53028 33.7649 6.37003 34.2358 6.04953 34.6015C5.72902 34.9672 5.31337 35.2328 4.80256 35.4031V35.4331C5.10304 35.4532 5.38849 35.5283 5.6539 35.6686C5.91932 35.8039 6.14968 35.9842 6.33998 36.2096C6.53529 36.4301 6.68553 36.6906 6.80071 36.9811C6.91589 37.2717 6.97098 37.5923 6.97098 37.933C6.97098 38.3888 6.88084 38.7846 6.69554 39.1303C6.51025 39.4759 6.25986 39.7665 5.93935 40.0019C5.61885 40.2374 5.24326 40.4177 4.81759 40.543C4.39192 40.6682 3.9362 40.7283 3.44042 40.7283H0V30.689V30.679ZM1.36215 34.847H3.22007C3.47547 34.847 3.71585 34.822 3.94121 34.7669C4.16656 34.7168 4.36688 34.6266 4.53715 34.5064C4.70741 34.3861 4.84263 34.2258 4.94278 34.0405C5.04294 33.8501 5.09302 33.6197 5.09302 33.3441C5.09302 32.9484 4.96782 32.6027 4.71242 32.3071C4.45702 32.0166 4.05639 31.8663 3.50552 31.8663H1.36215V34.842V34.847ZM1.36215 39.526H3.36029C3.57062 39.526 3.79598 39.506 4.04637 39.4609C4.29677 39.4158 4.53214 39.3356 4.74748 39.2054C4.96282 39.0802 5.14811 38.9048 5.29834 38.6894C5.44858 38.474 5.5237 38.1834 5.5237 37.8227C5.5237 37.2266 5.32839 36.7807 4.94278 36.4852C4.55718 36.1896 4.03135 36.0393 3.37031 36.0393H1.36215V39.526Z" fill="#1D1D1B"/>
<path d="M14.2022 30.679H15.4342L19.7309 40.7183H18.1434L17.1369 38.2385H12.3593L11.3678 40.7183H9.78027L14.2022 30.679ZM16.6411 37.0462L14.7681 32.4374H14.7381L12.8401 37.0462H16.6361H16.6411Z" fill="#1D1D1B"/>
<path d="M31.7046 35.1025V40.052C31.4592 40.2023 31.1788 40.3376 30.8683 40.4478C30.5578 40.563 30.2323 40.6582 29.8967 40.7383C29.5612 40.8185 29.2207 40.8786 28.8751 40.9137C28.5296 40.9487 28.2091 40.9688 27.9036 40.9688C27.0523 40.9688 26.2961 40.8285 25.63 40.543C24.964 40.2574 24.4031 39.8767 23.9424 39.3958C23.4816 38.9148 23.1361 38.3538 22.8957 37.7175C22.6553 37.0813 22.5352 36.405 22.5352 35.6987C22.5352 34.9522 22.6654 34.2559 22.9258 33.6146C23.1862 32.9734 23.5467 32.4123 24.0025 31.9414C24.4582 31.4705 25.0091 31.0998 25.6551 30.8293C26.2961 30.5588 27.0022 30.4235 27.7684 30.4235C28.6949 30.4235 29.451 30.5387 30.037 30.7692C30.6229 30.9996 31.1137 31.3202 31.5093 31.726L30.5478 32.763C30.1321 32.3672 29.6914 32.0917 29.2307 31.9314C28.77 31.7761 28.2792 31.696 27.7734 31.696C27.1975 31.696 26.6767 31.8012 26.216 32.0166C25.7552 32.227 25.3546 32.5175 25.0241 32.8732C24.6936 33.2339 24.4382 33.6547 24.2579 34.1407C24.0776 34.6266 23.9874 35.1426 23.9874 35.6936C23.9874 36.2447 24.0876 36.7857 24.2829 37.2767C24.4832 37.7626 24.7537 38.1884 25.1042 38.5441C25.4548 38.9048 25.8654 39.1854 26.3361 39.3857C26.8069 39.5911 27.3227 39.6913 27.8786 39.6913C28.3593 39.6913 28.815 39.6462 29.2457 39.5561C29.6764 39.4659 30.042 39.3356 30.3425 39.1653V36.3699H28.119V35.0925H31.7046V35.1025Z" fill="#1D1D1B"/>
<path d="M39.4571 30.679H40.6891L44.9858 40.7183H43.3983L42.3917 38.2385H37.6142L36.6227 40.7183H35.0352L39.4571 30.679ZM41.896 37.0462L40.023 32.4374H39.993L38.095 37.0462H41.891H41.896Z" fill="#1D1D1B"/>
<path d="M56.9595 35.1025V40.052C56.7141 40.2023 56.4337 40.3376 56.1232 40.4478C55.8127 40.563 55.4872 40.6582 55.1516 40.7383C54.8161 40.8185 54.4756 40.8786 54.13 40.9137C53.7845 40.9487 53.464 40.9688 53.1585 40.9688C52.3072 40.9688 51.551 40.8285 50.8849 40.543C50.2189 40.2574 49.658 39.8767 49.1973 39.3958C48.7365 38.9148 48.391 38.3538 48.1506 37.7175C47.9102 37.0813 47.79 36.405 47.79 35.6987C47.79 34.9522 47.9202 34.2559 48.1807 33.6146C48.4411 32.9734 48.8016 32.4123 49.2573 31.9414C49.7131 31.4705 50.2639 31.0998 50.91 30.8293C51.551 30.5588 52.2571 30.4235 53.0233 30.4235C53.9497 30.4235 54.7059 30.5387 55.2919 30.7692C55.8778 30.9996 56.3685 31.3202 56.7642 31.726L55.8027 32.763C55.387 32.3672 54.9463 32.0917 54.4856 31.9314C54.0249 31.7761 53.5341 31.696 53.0283 31.696C52.4524 31.696 51.9316 31.8012 51.4708 32.0166C51.0101 32.227 50.6095 32.5175 50.279 32.8732C49.9484 33.2339 49.693 33.6547 49.5128 34.1407C49.3325 34.6266 49.2423 35.1426 49.2423 35.6936C49.2423 36.2447 49.3425 36.7857 49.5378 37.2767C49.7381 37.7626 50.0085 38.1884 50.3591 38.5441C50.7096 38.9048 51.1203 39.1854 51.591 39.3857C52.0618 39.5911 52.5776 39.6913 53.1335 39.6913C53.6142 39.6913 54.0699 39.6462 54.5006 39.5561C54.9313 39.4659 55.2969 39.3356 55.5973 39.1653V36.3699H53.3738V35.0925H56.9595V35.1025Z" fill="#1D1D1B"/>
<path d="M61.5615 30.679H68.0367V31.9565H62.9187V34.9472H67.6812V36.2247H62.9187V39.4409H68.2921V40.7183H61.5615V30.679Z" fill="#1D1D1B"/>
<path d="M72.6491 38.6193C72.8945 38.99 73.21 39.2605 73.5906 39.4358C73.9712 39.6112 74.3668 39.6963 74.7725 39.6963C74.9978 39.6963 75.2282 39.6613 75.4685 39.5911C75.7039 39.521 75.9193 39.4158 76.1146 39.2705C76.3099 39.1303 76.4651 38.9549 76.5903 38.7445C76.7155 38.5341 76.7756 38.2936 76.7756 38.0231C76.7756 37.6374 76.6504 37.3418 76.405 37.1364C76.1596 36.931 75.8542 36.7607 75.4886 36.6254C75.123 36.4902 74.7274 36.3549 74.2967 36.2297C73.866 36.1044 73.4704 35.9241 73.1048 35.6987C72.7392 35.4732 72.4388 35.1676 72.1884 34.7819C71.943 34.4012 71.8178 33.8802 71.8178 33.2289C71.8178 32.9383 71.8829 32.6227 72.0081 32.2921C72.1333 31.9615 72.3386 31.6609 72.609 31.3854C72.8795 31.1098 73.235 30.8844 73.6657 30.699C74.0964 30.5137 74.6122 30.4235 75.2182 30.4235C75.764 30.4235 76.2898 30.4987 76.7906 30.6489C77.2914 30.7992 77.7321 31.1098 78.1077 31.5707L77.001 32.5776C76.8307 32.3121 76.5903 32.1017 76.2798 31.9414C75.9693 31.7811 75.6138 31.701 75.2182 31.701C74.8225 31.701 74.5271 31.7511 74.2767 31.8513C74.0263 31.9514 73.826 32.0767 73.6757 32.232C73.5255 32.3873 73.4203 32.5576 73.3552 32.7329C73.2951 32.9133 73.2651 33.0786 73.2651 33.2289C73.2651 33.6547 73.3903 33.9803 73.6357 34.2058C73.881 34.4312 74.1865 34.6166 74.5521 34.7568C74.9177 34.8971 75.3133 35.0274 75.744 35.1376C76.1747 35.2528 76.5703 35.4081 76.9359 35.6135C77.3014 35.8189 77.6019 36.0894 77.8523 36.4351C78.0977 36.7807 78.2229 37.2566 78.2229 37.8578C78.2229 38.3387 78.1327 38.7746 77.9475 39.1603C77.7622 39.5461 77.5168 39.8717 77.2013 40.1372C76.8858 40.4027 76.5202 40.6031 76.0945 40.7484C75.6689 40.8886 75.2182 40.9588 74.7324 40.9588C74.0914 40.9588 73.4804 40.8435 72.9045 40.6181C72.3286 40.3927 71.8679 40.042 71.5273 39.5711L72.6491 38.6092V38.6193Z" fill="#1D1D1B"/>
<path d="M13.4609 45.0416H16.04C16.7611 45.0416 17.3721 45.1318 17.8779 45.3071C18.3837 45.4825 18.7993 45.7079 19.1299 45.9834C19.4654 46.259 19.7258 46.5645 19.9161 46.8952C20.1064 47.2258 20.2516 47.5464 20.3418 47.857C20.4319 48.1676 20.487 48.4382 20.512 48.6886C20.5371 48.9391 20.5471 49.1094 20.5471 49.2146C20.5471 49.3198 20.5371 49.4902 20.512 49.7407C20.487 49.9861 20.4319 50.2667 20.3418 50.5723C20.2516 50.8778 20.1114 51.1985 19.9161 51.5341C19.7208 51.8698 19.4604 52.1703 19.1299 52.4459C18.7943 52.7214 18.3787 52.9468 17.8779 53.1222C17.3771 53.2975 16.7661 53.3877 16.04 53.3877H13.4609V45.0516V45.0416ZM14.2372 52.6713H15.8397C16.3906 52.6713 16.9014 52.6012 17.3821 52.4659C17.8629 52.3306 18.2785 52.1202 18.6291 51.8347C18.9846 51.5541 19.2601 51.1935 19.4654 50.7576C19.6707 50.3218 19.7709 49.8058 19.7709 49.2096C19.7709 48.6135 19.6707 48.0975 19.4654 47.6617C19.2601 47.2258 18.9846 46.8651 18.6291 46.5846C18.2785 46.304 17.8579 46.0936 17.3821 45.9534C16.9014 45.8181 16.3906 45.748 15.8397 45.748H14.2372V52.6713Z" fill="#1D1D1B"/>
<path d="M28.4193 50.1865C28.4193 50.6324 28.3692 51.0632 28.264 51.469C28.1639 51.8748 27.9936 52.2405 27.7532 52.5511C27.5129 52.8667 27.2024 53.1172 26.8118 53.3025C26.4211 53.4929 25.9454 53.583 25.3845 53.583C24.8236 53.583 24.3429 53.4879 23.9523 53.3025C23.5616 53.1172 23.2512 52.8617 23.0108 52.5511C22.7704 52.2355 22.6001 51.8748 22.5 51.469C22.3998 51.0632 22.3447 50.6324 22.3447 50.1865V45.0416H23.1209V49.9861C23.1209 50.2867 23.146 50.6023 23.2011 50.938C23.2562 51.2736 23.3663 51.5892 23.5266 51.8798C23.6868 52.1703 23.9172 52.4108 24.2077 52.5961C24.4981 52.7815 24.8937 52.8767 25.3795 52.8767C25.8653 52.8767 26.2559 52.7815 26.5514 52.5961C26.8468 52.4058 27.0722 52.1703 27.2324 51.8798C27.3927 51.5892 27.5028 51.2736 27.5579 50.938C27.613 50.6023 27.6381 50.2817 27.6381 49.9861V45.0416H28.4143V50.1865H28.4193Z" fill="#1D1D1B"/>
<path d="M34.0187 45.0416H35.1855L38.2203 52.0351L41.2551 45.0416H42.3618V53.3777H41.5856V46.0335H41.5606L38.3805 53.3777H38.04L34.8149 46.0335H34.7899V53.3777H34.0137V45.0416H34.0187Z" fill="#1D1D1B"/>
<path d="M44.2344 49.2096C44.2344 48.5734 44.3395 47.9873 44.5499 47.4563C44.7602 46.9252 45.0557 46.4593 45.4313 46.0736C45.8069 45.6829 46.2626 45.3823 46.7884 45.1619C47.3192 44.9414 47.9001 44.8312 48.5361 44.8312C49.1721 44.8312 49.7531 44.9414 50.2839 45.1619C50.8147 45.3823 51.2654 45.6879 51.641 46.0736C52.0166 46.4644 52.3121 46.9252 52.5224 47.4563C52.7328 47.9923 52.8379 48.5734 52.8379 49.2096C52.8379 49.8459 52.7328 50.432 52.5224 50.968C52.3121 51.504 52.0166 51.9699 51.641 52.3557C51.2654 52.7414 50.8097 53.047 50.2839 53.2624C49.7531 53.4778 49.1721 53.5881 48.5361 53.5881C47.9001 53.5881 47.3192 53.4778 46.7884 53.2624C46.2576 53.047 45.8069 52.7464 45.4313 52.3557C45.0557 51.9649 44.7602 51.504 44.5499 50.968C44.3395 50.432 44.2344 49.8459 44.2344 49.2096ZM45.0106 49.2096C45.0106 49.7256 45.0907 50.2116 45.256 50.6574C45.4212 51.1033 45.6566 51.494 45.9621 51.8247C46.2676 52.1553 46.6382 52.4158 47.0738 52.6012C47.5095 52.7915 47.9953 52.8817 48.5412 52.8817C49.087 52.8817 49.5728 52.7865 50.0085 52.6012C50.4442 52.4108 50.8147 52.1553 51.1202 51.8247C51.4257 51.494 51.6611 51.1083 51.8263 50.6574C51.9916 50.2116 52.0717 49.7256 52.0717 49.2096C52.0717 48.6936 51.9916 48.2077 51.8263 47.7618C51.6611 47.316 51.4257 46.9252 51.1202 46.5946C50.8147 46.264 50.4442 46.0085 50.0085 45.8181C49.5728 45.6277 49.087 45.5376 48.5412 45.5376C47.9953 45.5376 47.5095 45.6328 47.0738 45.8181C46.6382 46.0085 46.2676 46.264 45.9621 46.5946C45.6566 46.9252 45.4212 47.311 45.256 47.7618C45.0907 48.2077 45.0106 48.6936 45.0106 49.2096Z" fill="#1D1D1B"/>
<path d="M54.8018 45.0416H55.8033L60.8763 52.3407H60.9014V45.0416H61.6776V53.3777H60.676L55.603 46.0786H55.578V53.3777H54.8018V45.0416Z" fill="#1D1D1B"/>
<path d="M64.0654 45.0416H66.6445C67.3656 45.0416 67.9766 45.1318 68.4824 45.3071C68.9832 45.4825 69.4038 45.7079 69.7344 45.9834C70.0649 46.259 70.3303 46.5645 70.5256 46.8952C70.7159 47.2308 70.8611 47.5464 70.9513 47.857C71.0414 48.1626 71.0965 48.4382 71.1215 48.6886C71.1466 48.9391 71.1566 49.1094 71.1566 49.2146C71.1566 49.3198 71.1466 49.4902 71.1215 49.7407C71.0965 49.9861 71.0414 50.2667 70.9513 50.5723C70.8611 50.8778 70.7209 51.1985 70.5256 51.5341C70.3353 51.8698 70.0699 52.1703 69.7344 52.4459C69.3988 52.7214 68.9832 52.9468 68.4824 53.1222C67.9816 53.2975 67.3656 53.3877 66.6445 53.3877H64.0654V45.0516V45.0416ZM64.8416 52.6713H66.4442C66.995 52.6713 67.5058 52.6012 67.9866 52.4659C68.4674 52.3306 68.883 52.1202 69.2336 51.8347C69.5841 51.5491 69.8646 51.1935 70.0699 50.7576C70.2752 50.3218 70.3754 49.8058 70.3754 49.2096C70.3754 48.6135 70.2752 48.0975 70.0699 47.6617C69.8646 47.2258 69.5891 46.8651 69.2336 46.5846C68.878 46.304 68.4624 46.0936 67.9866 45.9534C67.5058 45.8181 66.995 45.748 66.4442 45.748H64.8416V52.6713Z" fill="#1D1D1B"/>
<path d="M73.1055 45.0416H78.2035V45.748H73.8867V48.7137H77.9331V49.42H73.8867V52.6713H78.3938V53.3777H73.1105V45.0416H73.1055Z" fill="#1D1D1B"/>
</g>
<defs>
<linearGradient id="paint0_linear_59_1164" x1="127" y1="42.4516" x2="85.8105" y2="42.4516" gradientUnits="userSpaceOnUse">
<stop offset="0.57" stop-color="white"/>
<stop offset="0.73" stop-color="#FDFDFD"/>
<stop offset="0.79" stop-color="#F6F6F6" stop-opacity="0.98"/>
<stop offset="0.83" stop-color="#EAEAEA" stop-opacity="0.95"/>
<stop offset="0.86" stop-color="#D9D9D9" stop-opacity="0.91"/>
<stop offset="0.89" stop-color="#C3C3C3" stop-opacity="0.86"/>
<stop offset="0.92" stop-color="#A8A8A8" stop-opacity="0.8"/>
<stop offset="0.94" stop-color="#878787" stop-opacity="0.72"/>
<stop offset="0.96" stop-color="#626262" stop-opacity="0.63"/>
<stop offset="0.98" stop-color="#373737" stop-opacity="0.53"/>
<stop offset="1" stop-opacity="0.4"/>
</linearGradient>
<clipPath id="clip0_59_1164">
<rect width="127" height="78" fill="white"/>
</clipPath>
</defs>
</svg>
